<svg xmlns="http://www.w3.org/2000/svg" xmlns:xlink="http://www.w3.org/1999/xlink" viewBox="0 0 275 118" preserveAspectRatio="xMidYMid" style="display: block; shape-rendering: auto; background: rgb(255, 255, 255);" width="275" height="118"><style type="text/css">
  .ld-text text {
    text-anchor: middle;
    dominant-baseline: middle;
    font-size: 52px;
    opacity: 0;
    user-select: none;
    pointer-events: none;
  }
</style>
<g style="transform-origin:137.5px 59px;transform:scale(1)" class="ld-text">
<g transform="translate(137.5,59)">
  <g transform="scale(0.6500) translate(0,0)"><g class="path" style="opacity: 1; transform-origin: -153.92px -2.75px; transform: matrix3d(0.91, 0, 0, 0, 0, 0.91, 0, 0, 0, 0, 0.91, 0, 0, 0, 0, 1); animation: 0.925926s linear -0.534722s infinite normal forwards running animate-ikkmuxecziq; transform-box: view-box;"><path d="M8.24 5.95L8.24 5.95Q8.24 13.55 16.32 16.11L16.32 16.11Q19.52 17.07 21.64 17.19Q23.76 17.31 23.92 17.15L23.92 17.15L24 18.83L23.52 18.83Q14.56 18.83 9.92 14.35L9.92 14.35Q6.56 11.23 6.56 5.95L6.56 5.95Q6.56-5.41 18.60-11.65Q30.64-17.89 52.48-17.89L52.48-17.89Q63.92-17.89 68.56-15.41Q73.20-12.93 73.20-8.29L73.20-8.29Q73.20-4.61 70.88-0.81Q68.56 2.99 65.28 7.07Q62 11.15 60.80 13.95L60.80 13.95L65.04 13.95L64.88 15.39L60.24 15.39Q59.60 17.47 59.60 19.15L59.60 19.15L57.92 19.15Q57.92 17.23 58.40 15.39L58.40 15.39L48.24 15.39L46.56 24.75Q44.88 33.39 38.48 38.31Q32.08 43.23 24.72 43.23L24.72 43.23L24.72 41.63Q30.16 41.55 31.72 39.31Q33.28 37.07 34.80 28.35L34.80 28.35L36.96 15.39L32.88 15.39L33.04 13.95L37.20 13.95L42.40-15.89Q26-14.53 17.12-8.89Q8.24-3.25 8.24 5.95 zM71.28-8.29L71.28-8.29Q71.28-16.29 53.12-16.29L53.12-16.29Q49.84 6.35 48.48 13.95L48.48 13.95L58.96 13.95Q60.16 10.91 63.36 6.79Q66.56 2.67 68.92-1.09Q71.28-4.85 71.28-8.29" style="fill: rgb(140, 204, 81);" transform="translate(-193.800,-15.415)"></path></g><g class="path" style="opacity: 1; transform-origin: -102.6px 0.22px; transform: matrix3d(0.91, 0, 0, 0, 0, 0.91, 0, 0, 0, 0, 0.91, 0, 0, 0, 0, 1); animation: 0.925926s linear -0.458333s infinite normal forwards running animate-ikkmuxecziq; transform-box: view-box;"><path d="M102.16 31.55L102.16 31.55Q95.12 31.55 94.48 25.39L94.48 25.39Q90.96 31.55 85.60 31.55Q80.24 31.55 77.08 28.31Q73.92 25.07 73.92 19.23L73.92 19.23Q73.92 10.11 78.40 4.91Q82.88-0.29 90-0.29L90-0.29Q95.84-0.29 97.76 5.23L97.76 5.23Q98.16 2.83 98.64 0.43L98.64 0.43Q104.56 0.43 107.44-0.05L107.44-0.05L108.48-0.29L102.96 29.95Q105.36 29.71 106.96 27.71L106.96 27.71L108.16 28.67Q105.76 31.55 102.16 31.55 zM82.96 23.31Q82.96 26.91 83.88 28.31Q84.80 29.71 86.72 29.71Q88.64 29.71 90.64 27.63L90.64 27.63Q93.28 24.91 94.88 20.75L94.88 20.75Q95.12 19.71 95.80 15.75Q96.48 11.79 96.96 9.23L96.96 9.23Q96.72 6.19 95.28 3.95Q93.84 1.71 91.68 1.71L91.68 1.71Q87.76 1.71 85.36 8.71Q82.96 15.71 82.96 23.31L82.96 23.31" style="fill: rgb(140, 204, 81);" transform="translate(-193.800,-15.415)"></path></g><g class="path" style="opacity: 1; transform-origin: -66.12px -0.14px; transform: matrix3d(0.91, 0, 0, 0, 0, 0.91, 0, 0, 0, 0, 0.91, 0, 0, 0, 0, 1); animation: 0.925926s linear -0.381944s infinite normal forwards running animate-ikkmuxecziq; transform-box: view-box;"><path d="M114.32 3.55L113.12 2.59Q115.52-0.29 119.16-0.29Q122.80-0.29 124.80 1.55Q126.80 3.39 126.80 6.75L126.80 6.75L126.80 7.23Q130.40-0.29 136.16-0.29L136.16-0.29Q142.32-0.29 142.32 6.11L142.32 6.11Q142.32 8.75 140.56 11.71Q138.80 14.67 137.04 17.35Q135.28 20.03 135.28 22.11L135.28 22.11L133.36 22.11Q133.36 19.15 136.80 14.11Q140.24 9.07 140.24 6.31Q140.24 3.55 139.16 2.55Q138.08 1.55 135.96 1.55Q133.84 1.55 131.80 3.39Q129.76 5.23 128.40 8.03L128.40 8.03Q126.24 12.19 125.52 14.83L125.52 14.83L125.52 14.91L122.64 30.83L113.04 30.83L118.32 1.31Q115.92 1.55 114.32 3.55L114.32 3.55" style="fill: rgb(140, 204, 81);" transform="translate(-193.800,-15.415)"></path></g><g class="path" style="opacity: 1; transform-origin: -21.64px 0.22px; transform: matrix3d(0.91, 0, 0, 0, 0, 0.91, 0, 0, 0, 0, 0.91, 0, 0, 0, 0, 1); animation: 0.925926s linear -0.305556s infinite normal forwards running animate-ikkmuxecziq; transform-box: view-box;"><path d="M174.48 29.95L174.48 29.95Q176.40 29.95 178.48 27.71L178.48 27.71L179.68 28.67Q179.12 29.79 177.20 30.67Q175.28 31.55 172.96 31.55L172.96 31.55Q165.68 31.55 165.68 24.99L165.68 24.99Q165.68 22.19 167.12 14.99Q168.56 7.79 168.56 5.55L168.56 5.55Q168.56 2.11 165.28 2.11L165.28 2.11Q160.32 2.11 156.96 14.83L156.96 14.83L154.08 30.83L144.48 30.83L149.76 1.31Q147.36 1.55 145.76 3.55L145.76 3.55L144.56 2.59Q146.96-0.29 150.60-0.29Q154.24-0.29 156.24 1.55Q158.24 3.39 158.24 6.75L158.24 6.75L158.24 6.99Q161.36-0.29 167.68-0.29L167.68-0.29Q172.16-0.29 174.76 2.15Q177.36 4.59 177.60 8.99L177.60 8.99Q179.12 4.59 181.44 2.15Q183.76-0.29 188.16-0.29Q192.56-0.29 195.20 2.39Q197.84 5.07 197.84 9.79L197.84 9.79Q197.84 12.27 196.32 19.35Q194.80 26.43 194.64 29.95L194.64 29.95Q196.56 29.95 198.64 27.71L198.64 27.71L199.84 28.67Q199.28 29.79 197.36 30.67Q195.44 31.55 193.12 31.55L193.12 31.55Q185.84 31.55 185.84 24.99L185.84 24.99Q185.84 22.19 187.28 14.99Q188.72 7.79 188.72 5.55L188.72 5.55Q188.72 2.11 185.44 2.11L185.44 2.11Q179.68 2.11 176.16 19.23L176.16 19.23Q174.64 26.51 174.48 29.95" style="fill: rgb(140, 204, 81);" transform="translate(-193.800,-15.415)"></path></g><g class="path" style="opacity: 1; transform-origin: 25.48px 0.22px; transform: matrix3d(0.91, 0, 0, 0, 0, 0.91, 0, 0, 0, 0, 0.91, 0, 0, 0, 0, 1); animation: 0.925926s linear -0.229167s infinite normal forwards running animate-ikkmuxecziq; transform-box: view-box;"><path d="M216.16 31.55Q210 31.55 206.80 28.47Q203.60 25.39 203.60 20.71Q203.60 16.03 204.44 12.71Q205.28 9.39 207.20 6.31Q209.12 3.23 213 1.47Q216.88-0.29 222.68-0.29Q228.48-0.29 231.72 2.79Q234.96 5.87 234.96 11.23L234.96 11.23Q234.96 20.35 230.12 25.95Q225.28 31.55 216.16 31.55L216.16 31.55 zM212.64 23.31L212.64 23.31Q212.64 29.71 216.36 29.71Q220.08 29.71 223 23.27Q225.92 16.83 225.92 7.95L225.92 7.95Q225.92 1.23 222.28 1.23Q218.64 1.23 215.64 7.35Q212.64 13.47 212.64 23.31" style="fill: rgb(140, 204, 81);" transform="translate(-193.800,-15.415)"></path></g><g class="path" style="opacity: 1; transform-origin: 60.12px -0.14px; transform: matrix3d(0.91, 0, 0, 0, 0, 0.91, 0, 0, 0, 0, 0.91, 0, 0, 0, 0, 1); animation: 0.925926s linear -0.152778s infinite normal forwards running animate-ikkmuxecziq; transform-box: view-box;"><path d="M240.56 3.55L239.36 2.59Q241.76-0.29 245.40-0.29Q249.04-0.29 251.04 1.55Q253.04 3.39 253.04 6.75L253.04 6.75L253.04 7.23Q256.64-0.29 262.40-0.29L262.40-0.29Q268.56-0.29 268.56 6.11L268.56 6.11Q268.56 8.75 266.80 11.71Q265.04 14.67 263.28 17.35Q261.52 20.03 261.52 22.11L261.52 22.11L259.60 22.11Q259.60 19.15 263.04 14.11Q266.48 9.07 266.48 6.31Q266.48 3.55 265.40 2.55Q264.32 1.55 262.20 1.55Q260.08 1.55 258.04 3.39Q256 5.23 254.64 8.03L254.64 8.03Q252.48 12.19 251.76 14.83L251.76 14.83L251.76 14.91L248.88 30.83L239.28 30.83L244.56 1.31Q242.16 1.55 240.56 3.55L240.56 3.55" style="fill: rgb(140, 204, 81);" transform="translate(-193.800,-15.415)"></path></g><g class="path" style="opacity: 1; transform-origin: 94.04px 7.22px; transform: matrix3d(0.91, 0, 0, 0, 0, 0.91, 0, 0, 0, 0, 0.91, 0, 0, 0, 0, 1); animation: 0.925926s linear -0.0763889s infinite normal forwards running animate-ikkmuxecziq; transform-box: view-box;"><path d="M275.20 1.31L275.20 1.31Q273.28 1.31 271.20 3.55L271.20 3.55L270 2.59Q270.56 1.47 272.48 0.59Q274.40-0.29 276.72-0.29L276.72-0.29Q284-0.29 284 6.27L284 6.27Q284 9.07 282.48 15.43Q280.96 21.79 280.96 24.03L280.96 24.03Q280.96 27.87 284.16 27.87L284.16 27.87Q286.80 27.87 289.32 24.27Q291.84 20.67 293.44 14.59L293.44 14.59L296.08 0.43Q302 0.43 304.72-0.05L304.72-0.05L305.76-0.29L300.72 28.03Q299.28 36.27 294.04 40.91Q288.80 45.55 280.48 45.55L280.48 45.55Q275.44 45.55 272.68 43.83Q269.92 42.11 269.92 39.35Q269.92 36.59 271.60 34.95Q273.28 33.31 276.36 33.31Q279.44 33.31 282.08 34.31Q284.72 35.31 285.92 35.47L285.92 35.47L285.76 36.91Q284.40 36.75 281.84 35.79Q279.28 34.83 276.76 34.83Q274.24 34.83 272.92 35.95Q271.60 37.07 271.60 39.19Q271.60 41.31 273.92 42.63Q276.24 43.95 279.68 43.95L279.68 43.95Q288 43.95 289.92 33.95L289.92 33.95L291.92 22.91Q288.56 30.27 281.76 30.27L281.76 30.27Q277.12 30.27 274.60 27.63Q272.08 24.99 272.08 20.19L272.08 20.19Q272.08 17.71 273.56 11.27Q275.04 4.83 275.20 1.31" style="fill: rgb(140, 204, 81);" transform="translate(-193.800,-15.415)"></path></g><g class="path" style="opacity: 1; transform-origin: 153.56px -4.83px; transform: matrix3d(0.91, 0, 0, 0, 0, 0.91, 0, 0, 0, 0, 0.91, 0, 0, 0, 0, 1); animation: 0.925926s linear 0s infinite normal forwards running animate-ikkmuxecziq; transform-box: view-box;"><path d="M343.68 0.35L343.68 0.35Q343.68-9.17 341.08-12.69Q338.48-16.21 333.36-16.21L333.36-16.21Q326.56-16.21 320.80-11.09L320.80-11.09Q317.92-8.53 316.20-4.25Q314.48 0.03 314.48 4.67Q314.48 9.31 315.80 12.43Q317.12 15.55 318.96 17.15L318.96 17.15Q322.88 20.59 325.76 21.23L325.76 21.23L327.12 21.47L326.56 22.99Q325.20 22.59 324.28 22.31Q323.36 22.03 321.04 20.67Q318.72 19.31 317.08 17.59Q315.44 15.87 314.12 12.63Q312.80 9.39 312.80 5.39L312.80 5.39Q312.80-4.93 318.76-11.41Q324.72-17.89 334.24-17.89L334.24-17.89Q351.84-17.89 351.84-1.17L351.84-1.17Q351.84 4.51 351.20 8.55Q350.56 12.59 350.40 12.99L350.40 12.99Q354.08 2.35 359.96-7.73Q365.84-17.81 372.96-24.65Q380.08-31.49 386-31.49L386-31.49Q390.48-31.49 392.32-29.53Q394.16-27.57 394.16-23.73L394.16-23.73L392.32-23.73Q391.92-27.25 390.44-28.41Q388.96-29.57 386-29.57L386-29.57Q381.12-29.57 374.76-23.49Q368.40-17.41 363.20-9.09Q358-0.77 354.36 8.15Q350.72 17.07 350.72 22.59L350.72 22.59Q350.72 30.83 353.48 34.11Q356.24 37.39 360.92 37.39Q365.60 37.39 369.68 35.23L369.68 35.23L369.68 37.07Q365.44 39.07 360.48 39.07L360.48 39.07Q342.16 39.07 342.16 20.83L342.16 20.83Q342.16 16.99 342.80 13.15L342.80 13.15Q335.36 30.91 326.16 41.79Q316.96 52.67 308.72 52.67L308.72 52.67Q304.24 52.67 302.40 50.71Q300.56 48.75 300.56 44.91L300.56 44.91L302.40 44.91Q302.80 48.43 304.28 49.59Q305.76 50.75 308.72 50.75L308.72 50.75Q315.44 50.75 323.88 41.39Q332.32 32.03 338 20.03Q343.68 8.03 343.68 0.35" style="fill: rgb(140, 204, 81);" transform="translate(-193.800,-15.415)"></path></g></g><text dy="0.35em" fill="#8ccc51" font-family="Sail" font-size="52">FarmoryX</text>
</g>
</g><style type="text/css">@keyframes animate-ikkmuxecziq { 0.00% {transform: translate(0.00px,0.00px) rotate(0.00deg) scale(0.91, 0.91) skew(0deg, 0.00deg) ;opacity: 1.00;}4.00% {transform: translate(0.00px,0.00px) rotate(0.00deg) scale(0.91, 0.91) ;}8.00% {animation-timing-function: cubic-bezier(0.69,0.60,0.35,0.27);transform: translate(0.00px,0.00px) rotate(0.00deg) scale(0.91, 0.91) ;}14.00% {transform: translate(0.00px,0.00px) rotate(0.00deg) scale(0.93, 0.93) ;}18.00% {transform: translate(0.00px,0.00px) rotate(0.00deg) scale(0.94, 0.94) ;}22.00% {animation-timing-function: cubic-bezier(0.67,0.66,0.34,0.33);transform: translate(0.00px,0.00px) rotate(0.00deg) scale(0.96, 0.96) ;}26.00% {transform: translate(0.00px,0.00px) rotate(0.00deg) scale(0.97, 0.97) ;}30.00% {transform: translate(0.00px,0.00px) rotate(0.00deg) scale(0.99, 0.99) ;}34.00% {animation-timing-function: cubic-bezier(0.65,0.71,0.32,0.38);transform: translate(0.00px,0.00px) rotate(0.00deg) scale(1.01, 1.01) ;}40.00% {animation-timing-function: cubic-bezier(0.64,0.74,0.31,0.41);transform: translate(0.00px,0.00px) rotate(0.00deg) scale(1.02, 1.02) ;}46.00% {animation-timing-function: cubic-bezier(0.60,0.91,0.23,0.63);transform: translate(0.00px,0.00px) rotate(0.00deg) scale(1.03, 1.03) ;}50.00% {transform: translate(0.00px,0.00px) rotate(0.00deg) scale(1.03, 1.03) ;}54.00% {transform: translate(0.00px,0.00px) rotate(0.00deg) scale(1.03, 1.03) ;}58.00% {animation-timing-function: cubic-bezier(0.69,0.60,0.35,0.27);transform: translate(0.00px,0.00px) rotate(0.00deg) scale(1.03, 1.03) ;}64.00% {transform: translate(0.00px,0.00px) rotate(0.00deg) scale(1.01, 1.01) ;}68.00% {transform: translate(0.00px,0.00px) rotate(0.00deg) scale(1.00, 1.00) ;}72.00% {animation-timing-function: cubic-bezier(0.67,0.66,0.34,0.33);transform: translate(0.00px,0.00px) rotate(0.00deg) scale(0.98, 0.98) ;}76.00% {animation-timing-function: cubic-bezier(0.66,0.68,0.33,0.35);transform: translate(0.00px,0.00px) rotate(0.00deg) scale(0.97, 0.97) ;}82.00% {animation-timing-function: cubic-bezier(0.65,0.71,0.32,0.38);transform: translate(0.00px,0.00px) rotate(0.00deg) scale(0.94, 0.94) ;}88.00% {animation-timing-function: cubic-bezier(0.65,0.73,0.31,0.40);transform: translate(0.00px,0.00px) rotate(0.00deg) scale(0.92, 0.92) ;}94.00% {animation-timing-function: cubic-bezier(0.63,0.80,0.28,0.48);transform: translate(0.00px,0.00px) rotate(0.00deg) scale(0.91, 0.91) ;}100.00% {animation-timing-function: cubic-bezier(0.63,0.80,0.28,0.48);transform: translate(0.00px,0.00px) rotate(0.00deg) scale(0.91, 0.91) ;} }</style><!-- [ldio] generated by https://loading.io --></svg>